<svg xmlns="http://www.w3.org/2000/svg" viewBox="0 0 1200 700">
  <defs>
    <linearGradient id="bg3" x1="0" y1="0" x2="1" y2="1">
      <stop offset="0%" stop-color="#0b1220"/>
      <stop offset="100%" stop-color="#111827"/>
    </linearGradient>
    <linearGradient id="accent3" x1="0" y1="0" x2="1" y2="0">
      <stop offset="0%" stop-color="#22d3ee"/>
      <stop offset="100%" stop-color="#06b6d4"/>
    </linearGradient>
  </defs>
  <rect width="1200" height="700" fill="url(#bg3)"/>
  <rect x="90" y="90" width="1020" height="520" rx="28" fill="#0f172a" stroke="#164e63" stroke-width="4"/>
  <path d="M470 460c0-120 30-170 130-170s130 50 130 170H470z" fill="none" stroke="url(#accent3)" stroke-width="14"/>
  <path d="M550 300v-80M650 280v-90" stroke="#22d3ee" stroke-width="10" stroke-linecap="round"/>
  <path d="M760 230c35 48 35 98 0 148-20 24-20 52 0 78 39-22 64-61 64-112 0-50-25-90-64-114z" fill="none" stroke="#22d3ee" stroke-width="10"/>
  <rect x="210" y="220" width="180" height="280" rx="18" fill="#0b1220" stroke="#155e75" stroke-width="4"/>
  <circle cx="300" cy="360" r="42" fill="none" stroke="#22d3ee" stroke-width="10"/>
  <path d="M210 560h780" stroke="#164e63" stroke-width="10"/>
  <text x="150" y="620" fill="#67e8f9" font-size="46" font-family="Inter, Arial, sans-serif" font-weight="700">
    @8<5@: ?>60@=0O A83=0;870F8O
  </text>
</svg>
